# xmcd
#
# Track frame offsets:
#	150
#	14607
#	25818
#	37102
#	45479
#	59689
#	72285
#	83932
#	88082
#	106544
#	119379
#	133352
#	151010
#	167297
#	179210
#
# Disc length: 2611 seconds
#
# Revision: 5
# Processed by: cddbd v1.5.2PL0 Copyright (c) Steve Scherf et al.
# Submitted via: EZCDAudioConverter 2.1.7.1
#
DISCID=c90a310f
DTITLE=V/A - The Who Covered
DYEAR=2006
DGENRE=MOJO
TTITLE0=The Jam - Disguises
TTITLE1=Flaming Lips - Anyway, Anyhow, Anywhere
TTITLE2=The Bards - My Generation
TTITLE3=Snuff - I Can't Explain
TTITLE4=Fastball - The Real Me
TTITLE5=The Greenhornes - Mary Anne With The Shaky Hand
TTITLE6=The Litter - Substitute
TTITLE7=Doleful Lions - Heinz Baked Beans
TTITLE8=Pat Dinizio - Behind Blue Eyes
TTITLE9=Tommy Keene - Tattoo
TTITLE10=Richard Thompson - Legal Matter
TTITLE11=Waco Brothers - Baba O'Riley
TTITLE12=Lord Sitar - I Can See For Miles
TTITLE13=Sandy Nelson - Pinball Wizard
TTITLE14=Petra Haden - Armenia City In The Sky
EXTD=
EXTT0=
EXTT1=
EXTT2=
EXTT3=
EXTT4=
EXTT5=
EXTT6=
EXTT7=
EXTT8=
EXTT9=
EXTT10=
EXTT11=
EXTT12=
EXTT13=
EXTT14=
PLAYORDER=
